<svg version="1.1" id="Layer_1" xmlns="http://www.w3.org/2000/svg" xmlns:xlink="http://www.w3.org/1999/xlink" x="0px" y="0px"
	 width="100%" viewBox="0 0 500 500" enable-background="new 0 0 500 500" xml:space="preserve">
<path fill="#000000" opacity="1.000000" stroke="none" 
	d="
M236.000000,501.000000 
	C157.333359,501.000000 79.166702,501.000000 1.000042,501.000000 
	C1.000028,334.333405 1.000028,167.666779 1.000014,1.000131 
	C167.666565,1.000088 334.333130,1.000088 500.999756,1.000044 
	C500.999847,167.666519 500.999847,334.333038 500.999939,500.999786 
	C412.833344,501.000000 324.666656,501.000000 236.000000,501.000000 
M308.059967,52.555416 
	C266.944061,93.669975 225.853088,134.809586 184.625763,175.812103 
	C182.884140,177.544235 179.880005,178.908752 177.457108,178.919708 
	C136.803268,179.103882 96.148315,179.044968 55.493614,179.040649 
	C53.494240,179.040436 51.460251,178.827240 49.509422,179.136337 
	C48.462837,179.302170 47.101524,180.177017 46.718102,181.084930 
	C46.324097,182.017868 46.664265,183.536362 47.201019,184.514374 
	C47.816883,185.636581 48.998219,186.450104 49.940144,187.391479 
	C92.244331,229.670135 134.516968,271.980499 176.920837,314.158936 
	C180.002869,317.224579 181.165436,320.261597 181.148636,324.558929 
	C180.992966,364.379395 181.008286,404.200928 181.168442,444.021362 
	C181.177612,446.299988 182.881958,448.571808 183.797363,450.846802 
	C185.722061,449.832153 188.041168,449.213257 189.514084,447.745300 
	C231.993683,405.409485 274.368652,362.968658 316.877411,320.662201 
	C318.407471,319.139435 321.114685,318.055145 323.284851,318.035431 
	C344.276917,317.844513 365.271423,317.927307 386.265259,317.928375 
	C407.925537,317.929443 429.585907,317.954132 451.245819,317.864838 
	C452.732971,317.858704 455.209991,317.301636 455.480316,316.447845 
	C455.941589,314.990906 455.268829,312.986145 454.590546,311.420197 
	C454.096771,310.280151 452.839539,309.463898 451.901733,308.524139 
	C445.429321,302.038361 438.953644,295.555847 432.474945,289.076324 
	C396.664185,253.260941 360.932404,217.365616 324.903778,181.770782 
	C321.673859,178.579742 320.885437,175.697357 320.893616,171.633072 
	C320.973541,131.978607 320.926117,92.323875 320.906281,52.669224 
	C320.905609,51.341156 321.049561,49.950962 320.719788,48.696552 
	C319.656219,44.651031 316.960114,43.924110 313.894745,46.788792 
	C312.070099,48.493958 310.336517,50.296566 308.059967,52.555416 
z"/>
<path fill="#8B52FD" opacity="1.000000" stroke="none" 
	d="
M308.310974,52.305389 
	C310.336517,50.296566 312.070099,48.493958 313.894745,46.788792 
	C316.960114,43.924110 319.656219,44.651031 320.719788,48.696552 
	C321.049561,49.950962 320.905609,51.341156 320.906281,52.669224 
	C320.926117,92.323875 320.973541,131.978607 320.893616,171.633072 
	C320.885437,175.697357 321.673859,178.579742 324.903778,181.770782 
	C360.932404,217.365616 396.664185,253.260941 432.474945,289.076324 
	C438.953644,295.555847 445.429321,302.038361 451.901733,308.524139 
	C452.839539,309.463898 454.096771,310.280151 454.590546,311.420197 
	C455.268829,312.986145 455.941589,314.990906 455.480316,316.447845 
	C455.209991,317.301636 452.732971,317.858704 451.245819,317.864838 
	C429.585907,317.954132 407.925537,317.929443 386.265259,317.928375 
	C365.271423,317.927307 344.276917,317.844513 323.284851,318.035431 
	C321.114685,318.055145 318.407471,319.139435 316.877411,320.662201 
	C274.368652,362.968658 231.993683,405.409485 189.514084,447.745300 
	C188.041168,449.213257 185.722061,449.832153 183.797363,450.846802 
	C182.881958,448.571808 181.177612,446.299988 181.168442,444.021362 
	C181.008286,404.200928 180.992966,364.379395 181.148636,324.558929 
	C181.165436,320.261597 180.002869,317.224579 176.920837,314.158936 
	C134.516968,271.980499 92.244331,229.670135 49.940144,187.391479 
	C48.998219,186.450104 47.816883,185.636581 47.201019,184.514374 
	C46.664265,183.536362 46.324097,182.017868 46.718102,181.084930 
	C47.101524,180.177017 48.462837,179.302170 49.509422,179.136337 
	C51.460251,178.827240 53.494240,179.040436 55.493614,179.040649 
	C96.148315,179.044968 136.803268,179.103882 177.457108,178.919708 
	C179.880005,178.908752 182.884140,177.544235 184.625763,175.812103 
	C225.853088,134.809586 266.944061,93.669975 308.310974,52.305389 
M193.921616,299.456665 
	C193.921616,302.223267 193.921616,304.989899 193.921616,307.745972 
	C232.626266,307.745972 270.682983,307.745972 308.739471,307.745972 
	C308.739471,269.357666 308.739471,231.303391 308.739471,193.259247 
	C270.352600,193.259247 232.292221,193.259247 193.921631,193.259247 
	C193.921631,228.540375 193.921631,263.502777 193.921616,299.456665 
z"/>
<path fill="#000000" opacity="1.000000" stroke="none" 
	d="
M193.921631,298.960938 
	C193.921631,263.502777 193.921631,228.540375 193.921631,193.259247 
	C232.292221,193.259247 270.352600,193.259247 308.739471,193.259247 
	C308.739471,231.303391 308.739471,269.357666 308.739471,307.745972 
	C270.682983,307.745972 232.626266,307.745972 193.921616,307.745972 
	C193.921616,304.989899 193.921616,302.223267 193.921631,298.960938 
M251.042404,271.345245 
	C251.042404,273.106262 251.042404,274.867249 251.042404,276.674377 
	C267.980530,276.674377 284.223877,276.674377 300.571472,276.674377 
	C300.571472,259.682312 300.571472,242.986267 300.571472,226.280609 
	C283.950317,226.280609 267.700989,226.280609 251.041473,226.280609 
	C251.041473,241.148712 251.041473,255.764267 251.042404,271.345245 
z"/>
<path fill="#8B53FB" opacity="1.000000" stroke="none" 
	d="
M251.041931,270.862549 
	C251.041473,255.764267 251.041473,241.148712 251.041473,226.280609 
	C267.700989,226.280609 283.950317,226.280609 300.571472,226.280609 
	C300.571472,242.986267 300.571472,259.682312 300.571472,276.674377 
	C284.223877,276.674377 267.980530,276.674377 251.042404,276.674377 
	C251.042404,274.867249 251.042404,273.106262 251.041931,270.862549 
z"/>
</svg>